<?xml version="1.0" encoding="utf-8"?>
<svg width="210px" height="202px" viewBox="0 0 210 202" version="1.1" xmlns:xlink="http://www.w3.org/1999/xlink" xmlns="http://www.w3.org/2000/svg">
  <g id="Group">
    <g id="Group">
      <path d="M171 0C192.542 0 210 17.458 210 39L210 163C210 184.542 192.542 202 171 202L39 202C17.458 202 0 184.542 0 163L0 39C0 17.458 17.458 0 39 0L171 0Z" id="Rectangle" fill="#2D0402" stroke="none" />
    </g>
    <g id="Group" transform="translate(50.98073 20.019287)">
      <path d="M81.0193 54C95.9358 54 108.039 66.1028 108.039 81.0193C108.039 95.9357 95.9358 108.039 81.0193 108.039C66.1028 108.039 54 95.9357 54 81.0192C54 66.1028 66.1028 54 81.0193 54L81.0193 54L81.0193 54Z" id="Path" fill="#0CC2FF" fill-rule="evenodd" stroke="none" />
      <path d="M108 26.9807C108 12.0642 95.9357 0 81.0193 0L26.9807 0C12.0642 0 0 12.0642 0 26.9807C0 41.8972 12.0642 53.9614 26.9807 53.9614L81.0193 53.9614C95.9357 53.9614 108 41.8972 108 26.9807L108 26.9807L108 26.9807Z" id="Path" fill="#FF7568" fill-rule="evenodd" stroke="none" />
      <path d="M54 54L26.9807 54C19.8116 54 12.9507 56.8522 7.90149 61.9015C2.85225 66.9507 0 73.8116 0 80.9807C0 88.1499 2.85225 95.0107 7.90149 100.06C12.9507 105.109 19.8116 107.961 26.9807 107.961L54 107.961L54 54L54 54L54 54Z" id="Path" fill="#AF5BFF" fill-rule="evenodd" stroke="none" />
      <path d="M54 0L26.9807 0C19.8116 0 12.9507 2.85225 7.90149 7.9015C2.85225 12.9507 0 19.8116 0 26.9807C0 34.1499 2.85225 41.0107 7.90149 46.06C12.9507 51.1092 19.8116 53.9614 26.9807 53.9614L54 53.9614L54 0L54 0L54 0Z" id="Path" fill="#FF4611" fill-rule="evenodd" stroke="none" />
      <path d="M54 108L26.9807 108C19.8116 108 12.9507 110.852 7.9015 115.901C2.85225 120.951 0 127.812 0 134.981C0 142.15 2.85225 149.011 7.9015 154.06C12.9507 159.109 19.8116 161.961 26.9807 161.961L26.9807 161.961C34.1499 161.961 41.0107 159.109 46.06 154.06C51.1092 149.011 53.9615 142.15 53.9615 134.981L53.9615 108L53.9615 108L54 108Z" id="Path" fill="#00E681" fill-rule="evenodd" stroke="none" />
    </g>
  </g>
</svg>