<?xml version="1.0" encoding="utf-8"?>
<!-- Generator: Adobe Illustrator 26.3.1, SVG Export Plug-In . SVG Version: 6.00 Build 0)  -->
<svg version="1.1" id="Layer_1" xmlns="http://www.w3.org/2000/svg" xmlns:xlink="http://www.w3.org/1999/xlink" x="0px" y="0px"
	 viewBox="0 0 223.28 188.89" style="enable-background:new 0 0 223.28 188.89;" xml:space="preserve">
<style type="text/css">
	.st0{fill:url(#SVGID_1_);}
	.st1{fill:url(#SVGID_00000071549687690822661340000003850421927820903347_);}
	.st2{fill:url(#SVGID_00000164511527949671930330000011684486961619064979_);}
</style>
<linearGradient id="SVGID_1_" gradientUnits="userSpaceOnUse" x1="65.9867" y1="44.3101" x2="157.0082" y2="44.3101">
	<stop  offset="0" style="stop-color:#FFFFFF"/>
	<stop  offset="1" style="stop-color:#000000"/>
</linearGradient>
<path class="st0" d="M111.5,4.9L65.99,83.72c0,0,1.19-1.13,3.39-2.83c19.21-14.86,44.94-18.12,67.39-8.84
	c6.44,2.66,13.47,6.41,20.25,11.67L111.5,4.9z"/>
<linearGradient id="SVGID_00000106826411761201202300000014513742399782321852_" gradientUnits="userSpaceOnUse" x1="10.7239" y1="139.8479" x2="101.7319" y2="139.8479" gradientTransform="matrix(0.9998 -0.0175 0.0175 0.9998 -6.2714 2.0189)">
	<stop  offset="0" style="stop-color:#FFFFFF"/>
	<stop  offset="1" style="stop-color:#000000"/>
</linearGradient>
<path style="fill:url(#SVGID_00000106826411761201202300000014513742399782321852_);" d="M7.56,179.88l91.02-0.02
	c0,0-1.58-0.46-4.15-1.51c-22.48-9.2-38.17-29.86-41.36-53.93c-0.92-6.91-1.19-14.87-0.02-23.37L7.56,179.88z"/>
<linearGradient id="SVGID_00000148641328309182829420000004237669670649271692_" gradientUnits="userSpaceOnUse" x1="75.4013" y1="130.9016" x2="210.3526" y2="130.9016" gradientTransform="matrix(0.9999 0.0129 -0.0129 0.9999 4.4382 -3.8621)">
	<stop  offset="0" style="stop-color:#FFFFFF"/>
	<stop  offset="1" style="stop-color:#000000"/>
</linearGradient>
<path style="fill:url(#SVGID_00000148641328309182829420000004237669670649271692_);" d="M77.83,152.88
	c8.24,15.36,24.03,26.11,42.46,27.17l0.29,0l91.87,0.06l-45.36-78.54l-0.16-0.28c-8.98-14.34-24.84-23.96-43.01-24.2l-1.14-0.01
	c7.61,1.27,16.05,4.51,22.48,9.67c20.24,16.24,23.31,46.01,6.88,66.5s-46.17,23.94-66.41,7.7C82.7,158.52,80.07,155.81,77.83,152.88
	"/>
</svg>
