<?xml version="1.0" encoding="utf-8"?>
<svg width="204.00092px" height="204.00049px" viewBox="0 0 204.00092 204.00049" version="1.1" xmlns:xlink="http://www.w3.org/1999/xlink" xmlns="http://www.w3.org/2000/svg">
  <defs>
    <linearGradient gradientUnits="objectBoundingBox" x1="0.99999994" y1="0.49999967" x2="-0.04411771" y2="0.49999958" id="gradient_1">
      <stop offset="0%" stop-color="#B2EBEC" />
      <stop offset="73.595505%" stop-color="#249D9F" />
    </linearGradient>
  </defs>
  <g id="Group">
    <g id="Accent-Color">
      <path d="M176.276 82.0978L176.248 82.1052C176.279 82.2188 176.31 82.3325 176.341 82.4464C187.416 123.78 162.887 166.265 121.554 177.341C80.2202 188.416 37.735 163.887 26.6595 122.553C15.5844 81.22 40.1133 38.7343 81.4468 27.6592C102.177 22.1045 123.197 25.5058 140.399 35.4913L140.436 35.4271C143.171 36.945 146.475 37.4445 149.734 36.571C156.401 34.7848 160.357 27.9322 158.571 21.2656C157.698 18.0059 155.613 15.3942 152.931 13.7849L152.987 13.6875C130.386 0.638596 102.807 -3.78825 75.6068 3.5C21.2067 18.0764 -11.0764 73.993 3.50002 128.393C18.0764 182.793 73.9928 215.077 128.393 200.5C182.792 185.924 215.076 130.007 200.5 75.6071L200.385 75.6377C198.349 69.3531 191.72 65.6994 185.266 67.429C178.811 69.1585 174.897 75.637 176.276 82.0978Z" id="Combined-Shape" fill="url(#gradient_1)" fill-rule="evenodd" stroke="none" />
    </g>
  </g>
  <path d="M68.728 115.532L77.548 104.984C77.62 104.888 77.692 104.798 77.764 104.714C77.836 104.63 77.908 104.54 77.98 104.444C77.428 104.732 76.834 104.948 76.198 105.092C75.562 105.236 74.896 105.308 74.2 105.308C72.976 105.308 71.812 105.008 70.708 104.408C69.604 103.808 68.71 102.938 68.026 101.798C67.342 100.658 67 99.296 67 97.712C67 96.104 67.396 94.64 68.188 93.32C68.98 92 70.072 90.95 71.464 90.17C72.856 89.39 74.44 89 76.216 89C78.088 89 79.696 89.372 81.04 90.116C82.384 90.86 83.422 91.892 84.154 93.212C84.886 94.532 85.252 96.068 85.252 97.82C85.252 99.452 85 100.958 84.496 102.338C83.992 103.718 83.296 105.02 82.408 106.244L76.756 114.272C76.516 114.632 76.138 114.932 75.622 115.172C75.106 115.412 74.524 115.532 73.876 115.532L68.728 115.532ZM76.216 101.24C77.032 101.24 77.71 101.078 78.25 100.754C78.79 100.43 79.204 99.968 79.492 99.368C79.78 98.768 79.924 98.084 79.924 97.316C79.924 96.476 79.768 95.768 79.456 95.192C79.144 94.616 78.706 94.178 78.142 93.878C77.578 93.578 76.912 93.428 76.144 93.428C75.424 93.428 74.794 93.596 74.254 93.932C73.714 94.268 73.3 94.724 73.012 95.3C72.724 95.876 72.58 96.548 72.58 97.316C72.58 98.18 72.718 98.906 72.994 99.494C73.27 100.082 73.678 100.52 74.218 100.808C74.758 101.096 75.424 101.24 76.216 101.24L76.216 101.24ZM105.916 102.392C105.916 104.696 105.67 106.688 105.178 108.368C104.686 110.048 104.008 111.44 103.144 112.544C102.28 113.648 101.248 114.47 100.048 115.01C98.848 115.55 97.552 115.82 96.16 115.82C94.768 115.82 93.484 115.55 92.308 115.01C91.132 114.47 90.112 113.648 89.248 112.544C88.384 111.44 87.706 110.048 87.214 108.368C86.722 106.688 86.476 104.696 86.476 102.392C86.476 100.112 86.722 98.132 87.214 96.452C87.706 94.772 88.384 93.38 89.248 92.276C90.112 91.172 91.132 90.35 92.308 89.81C93.484 89.27 94.768 89 96.16 89C97.552 89 98.848 89.27 100.048 89.81C101.248 90.35 102.28 91.172 103.144 92.276C104.008 93.38 104.686 94.772 105.178 96.452C105.67 98.132 105.916 100.112 105.916 102.392L105.916 102.392ZM100.156 102.392C100.156 100.592 100.042 99.11 99.814 97.946C99.586 96.782 99.292 95.864 98.932 95.192C98.548 94.544 98.116 94.1 97.636 93.86C97.156 93.62 96.664 93.5 96.16 93.5C95.68 93.5 95.2 93.62 94.72 93.86C94.24 94.1 93.82 94.544 93.46 95.192C93.1 95.864 92.806 96.782 92.578 97.946C92.35 99.11 92.236 100.592 92.236 102.392C92.236 104.216 92.35 105.704 92.578 106.856C92.806 108.008 93.1 108.92 93.46 109.592C93.82 110.264 94.24 110.72 94.72 110.96C95.2 111.2 95.692 111.32 96.196 111.32C96.676 111.32 97.156 111.2 97.636 110.96C98.116 110.72 98.548 110.264 98.932 109.592C99.292 108.92 99.586 108.008 99.814 106.856C100.042 105.704 100.156 104.216 100.156 102.392L100.156 102.392ZM120.172 95.66C120.172 96.908 119.884 98.012 119.308 98.972C118.732 99.932 117.97 100.694 117.022 101.258C116.074 101.822 115.024 102.104 113.872 102.104C112.648 102.104 111.568 101.828 110.632 101.276C109.696 100.724 108.958 99.962 108.418 98.99C107.878 98.018 107.608 96.908 107.608 95.66C107.608 94.364 107.878 93.218 108.418 92.222C108.958 91.226 109.696 90.446 110.632 89.882C111.568 89.318 112.648 89.036 113.872 89.036C115.12 89.036 116.212 89.318 117.148 89.882C118.084 90.446 118.822 91.22 119.362 92.204C119.902 93.188 120.172 94.34 120.172 95.66L120.172 95.66ZM115.888 95.66C115.888 94.556 115.726 93.758 115.402 93.266C115.078 92.774 114.568 92.528 113.872 92.528C113.2 92.528 112.708 92.78 112.396 93.284C112.084 93.788 111.928 94.58 111.928 95.66C111.928 96.692 112.084 97.448 112.396 97.928C112.708 98.408 113.2 98.648 113.872 98.648C114.568 98.648 115.078 98.408 115.402 97.928C115.726 97.448 115.888 96.692 115.888 95.66L115.888 95.66ZM108.652 115.532L128.416 90.116C128.608 89.924 128.836 89.738 129.1 89.558C129.364 89.378 129.724 89.288 130.18 89.288L134.248 89.288L114.484 114.74C114.316 114.956 114.094 115.142 113.818 115.298C113.542 115.454 113.212 115.532 112.828 115.532L108.652 115.532ZM135.256 109.376C135.256 110.624 134.968 111.734 134.392 112.706C133.816 113.678 133.054 114.446 132.106 115.01C131.158 115.574 130.108 115.856 128.956 115.856C127.756 115.856 126.682 115.58 125.734 115.028C124.786 114.476 124.042 113.708 123.502 112.724C122.962 111.74 122.692 110.624 122.692 109.376C122.692 108.08 122.962 106.934 123.502 105.938C124.042 104.942 124.78 104.162 125.716 103.598C126.652 103.034 127.732 102.752 128.956 102.752C130.204 102.752 131.296 103.034 132.232 103.598C133.168 104.162 133.906 104.936 134.446 105.92C134.986 106.904 135.256 108.056 135.256 109.376L135.256 109.376ZM130.972 109.376C130.972 108.296 130.81 107.504 130.486 107C130.162 106.496 129.652 106.244 128.956 106.244C128.284 106.244 127.792 106.496 127.48 107C127.168 107.504 127.012 108.296 127.012 109.376C127.012 110.408 127.168 111.164 127.48 111.644C127.792 112.124 128.284 112.364 128.956 112.364C129.652 112.364 130.162 112.124 130.486 111.644C130.81 111.164 130.972 110.408 130.972 109.376L130.972 109.376Z" id="Path" fill="#FFFFFF" fill-rule="evenodd" stroke="none" />
</svg>