<?xml version="1.0" encoding="utf-8"?>
<svg width="180px" height="186px" viewBox="0 0 180 186" version="1.1" xmlns:xlink="http://www.w3.org/1999/xlink" xmlns="http://www.w3.org/2000/svg">
  <defs>
    <linearGradient gradientUnits="objectBoundingBox" x1="0.99999994" y1="0.49999967" x2="-0.04411771" y2="0.49999958" id="gradient_1">
      <stop offset="0%" stop-color="#B2EBEC" />
      <stop offset="79.775276%" stop-color="#249D9F" />
    </linearGradient>
  </defs>
  <g id="Group">
    <g id="Accent-Color">
      <path d="M177.016 145.677L177.128 145.738C164.492 163.322 145.501 176.852 122.279 182.809C70.4693 196.099 17.2156 166.664 3.33335 117.064C-10.5489 67.4641 20.1969 16.4814 72.0064 3.19117C97.9113 -3.45399 124.177 0.582256 145.702 12.4798L145.649 12.5686C148.203 14.0358 150.188 16.4171 151.02 19.3892C152.721 25.4676 148.953 31.7155 142.604 33.3441C139.5 34.1405 136.353 33.6851 133.749 32.3011L133.713 32.3598C117.33 23.2554 97.3113 20.1542 77.5683 25.2188C38.2032 35.3166 14.8423 74.0535 25.39 111.74C35.9381 149.426 76.4002 171.791 115.765 161.693C132.99 157.274 147.15 147.373 156.746 134.476L156.809 134.51C158.037 131.014 161.014 128.153 165.015 127.126C171.364 125.498 177.89 129.105 179.591 135.183C180.663 139.013 179.564 142.91 177.016 145.677Z" id="Combined-Shape" fill="url(#gradient_1)" fill-rule="evenodd" stroke="none" />
    </g>
  </g>
  <g id="Group" transform="translate(69 81)">
    <path d="M1.49587 23.7102L9.93533 6.894C10.1734 6.44299 10.4222 6.03494 10.6819 5.66983C10.9416 5.30474 11.2337 4.95037 11.5583 4.60674L0.00274942 4.7034C-0.00342845 4.58783 0.00273516 3.81211 0.00273516 3.51144L0.00273516 0.225516L16.6219 0.225516L16.6219 2.31948C16.6219 2.92083 16.557 3.40405 16.4272 3.76916C16.2974 4.13425 16.1783 4.44567 16.0702 4.70339L7.793 22.0672C7.5766 22.5182 7.25742 22.9048 6.83544 23.227C6.41347 23.5491 5.85626 23.7102 5.16378 23.7102L1.49587 23.7102ZM3.54082 3.89803L3.05393 6.12085C2.96737 6.50743 2.83212 6.81348 2.64819 7.03898C2.46425 7.26448 2.18835 7.37724 1.82047 7.37723L0.00275161 7.37723L0.00275161 4.60676L3.54082 3.89803ZM33.8903 0.225516L33.8903 2.28727C33.8903 3.06042 33.6414 3.64029 33.1437 4.02687C32.646 4.41345 31.9103 4.60673 30.9365 4.60673L25.2886 4.60673L24.6394 8.50473C25.0722 8.41882 25.4941 8.35977 25.9053 8.32755C26.3164 8.29533 26.7168 8.27922 27.1063 8.27922C28.7292 8.27922 30.1088 8.59063 31.2448 9.21346C32.3809 9.83628 33.2519 10.6846 33.8578 11.7584C34.4637 12.8323 34.7667 14.0672 34.7667 15.4631C34.7667 17.1383 34.3772 18.6148 33.5981 19.8927C32.8191 21.1705 31.748 22.1692 30.3847 22.8887C29.0214 23.6081 27.4633 23.9678 25.7105 23.9678C24.2607 23.9678 22.9082 23.6779 21.6531 23.098C20.398 22.5182 19.3268 21.8095 18.4396 20.9719L19.9977 18.9101C20.3872 18.4591 20.8092 18.2336 21.2636 18.2336C21.5666 18.2336 21.8966 18.3195 22.2536 18.4913C22.6107 18.6631 22.9948 18.8564 23.4059 19.0712C23.8171 19.286 24.239 19.4792 24.6718 19.6511C25.1046 19.8229 25.5482 19.9088 26.0027 19.9088C26.8899 19.9088 27.604 19.7262 28.145 19.3611C28.686 18.996 29.0863 18.4967 29.346 17.8631C29.6057 17.2296 29.7355 16.5155 29.7355 15.7208C29.7355 14.5826 29.4109 13.7128 28.7617 13.1114C28.1125 12.5101 27.1928 12.2094 26.0027 12.2094C24.899 12.2094 23.8603 12.4135 22.8866 12.8215L19.7705 11.9839L21.7829 0.225516L33.8903 0.225516ZM48.3995 5.92753C48.3995 7.04431 48.1399 8.03223 47.6205 8.89129C47.1012 9.75036 46.4141 10.4322 45.5594 10.9369C44.7046 11.4416 43.7579 11.694 42.7192 11.694C41.6156 11.694 40.6418 11.447 39.7978 10.953C38.9539 10.4591 38.2885 9.7772 37.8016 8.9074C37.3147 8.0376 37.0713 7.04431 37.0713 5.92753C37.0713 4.7678 37.3147 3.74229 37.8016 2.85101C38.2885 1.95974 38.9539 1.26175 39.7978 0.757049C40.6418 0.25235 41.6156 0 42.7192 0C43.8444 0 44.829 0.25235 45.673 0.757049C46.5169 1.26175 47.1823 1.95437 47.6692 2.83491C48.1561 3.71545 48.3995 4.74632 48.3995 5.92753L48.3995 5.92753ZM44.5369 5.92756C44.5369 4.93964 44.3909 4.22554 44.0987 3.78527C43.8066 3.345 43.3467 3.12487 42.7192 3.12487C42.1133 3.12487 41.6697 3.35037 41.3884 3.80138C41.107 4.25239 40.9664 4.96111 40.9664 5.92756C40.9664 6.85105 41.107 7.52757 41.3884 7.9571C41.6697 8.38663 42.1133 8.60139 42.7192 8.60139C43.3467 8.60139 43.8066 8.38663 44.0987 7.9571C44.3909 7.52757 44.5369 6.85105 44.5369 5.92756L44.5369 5.92756ZM38.0125 23.7101L55.8327 0.966458C56.0058 0.794644 56.2114 0.6282 56.4494 0.467128C56.6874 0.306053 57.012 0.225516 57.4232 0.225516L61.0911 0.225516L43.271 23.0014C43.1195 23.1947 42.9193 23.3611 42.6704 23.5007C42.4216 23.6403 42.124 23.7101 41.7778 23.7101L38.0125 23.7101ZM62 18.2014C62 19.3182 61.7403 20.3115 61.221 21.1813C60.7016 22.0511 60.0146 22.7383 59.1598 23.243C58.3051 23.7477 57.3583 24.0001 56.3196 24.0001C55.2377 24.0001 54.2693 23.7531 53.4145 23.2591C52.5597 22.7652 51.8889 22.0779 51.402 21.1974C50.9152 20.3168 50.6717 19.3182 50.6717 18.2014C50.6717 17.0417 50.9152 16.0162 51.402 15.1249C51.8889 14.2336 52.5543 13.5356 53.3983 13.0309C54.2422 12.5262 55.216 12.2739 56.3196 12.2739C57.4449 12.2739 58.4295 12.5262 59.2734 13.0309C60.1174 13.5356 60.7828 14.2282 61.2697 15.1088C61.7566 15.9893 62 17.0202 62 18.2014L62 18.2014ZM58.1373 18.2014C58.1373 17.2349 57.9913 16.5262 57.6991 16.0752C57.407 15.6242 56.9472 15.3987 56.3196 15.3987C55.7137 15.3987 55.2701 15.6242 54.9888 16.0752C54.7075 16.5262 54.5668 17.2349 54.5668 18.2014C54.5668 19.1249 54.7075 19.8014 54.9888 20.2309C55.2701 20.6605 55.7137 20.8752 56.3196 20.8752C56.9472 20.8752 57.407 20.6605 57.6991 20.2309C57.9913 19.8014 58.1373 19.1249 58.1373 18.2014L58.1373 18.2014Z" id="Path" fill="#FFFFFF" fill-rule="evenodd" stroke="none" />
    <path d="M3.21988 5.36741L3.60929 3.57945L0.00269695 3.57945L0.00269658 5.36916L3.21988 5.36741Z" id="Vector" fill="#FFFFFF" fill-rule="evenodd" stroke="#FFFFFF" stroke-width="0" />
    <path d="M4.93463 4.66355L0.904344 4.66355L0.904344 3.57945L4.93463 3.57945L4.93463 4.66355Z" id="Vector" fill="#FFFFFF" fill-rule="evenodd" stroke="#808080" stroke-width="0" />
  </g>
</svg>